<svg xmlns="http://www.w3.org/2000/svg" width="20" height="26" viewBox="0 0 20 26"><g><g transform="rotate(-180 14.5 7)"><path fill="none" stroke="#fff" stroke-linecap="round" stroke-linejoin="round" stroke-miterlimit="20" stroke-width="2" d="M12.25 6.75a2 2 0 0 1 2-2h.5a2 2 0 0 1 2 2v.5a2 2 0 0 1-2 2h-.5a2 2 0 0 1-2-2z"/></g><g><path fill="none" stroke="#fff" stroke-linecap="round" stroke-linejoin="round" stroke-miterlimit="20" stroke-width="2" d="M13.75 22.75v0h3v0-4.5 0h1.5v0-4.5a1.5 1.5 0 0 0-1.5-1.5h-1.5v0"/></g><g><path fill="none" stroke="#fff" stroke-linecap="round" stroke-linejoin="round" stroke-miterlimit="20" stroke-width="2" d="M4 4.75a3 3 0 0 1 3-3v0a3 3 0 0 1 3 3v0a3 3 0 0 1-3 3v0a3 3 0 0 1-3-3z"/></g><g><path fill="none" stroke="#fff" stroke-linecap="round" stroke-linejoin="round" stroke-miterlimit="20" stroke-width="2" d="M10.75 24.25v0h-7.5v0-6 0h-1.5v0-4.5a3 3 0 0 1 3-3h4.5a3 3 0 0 1 3 3v4.5h-1.5v0z"/></g></g></svg>